#!OML:ASF H:\BabyWalks\Project 1\Capture day 1\Session 1\baby.ASF
:FULLY-SPECIFIED
:DEGREES
344
root -23.2689 17.7187 -2.33647 36.4232 94.6025 22.6558
lowerback 20.358 1.3576 5.48114
upperback 6.33942 3.6217 4.31289
thorax -4.45278 1.96621 0.635082
lowerneck -3.28407 -0.408985 5.74694
upperneck 4.15991 -0.366428 -9.00717
head 1.90965 -0.268052 -4.02538
rclavicle -1.59028e-015 1.11319e-014
rhumerus -40.6802 6.66544 -78.8583
rradius 40.485
rwrist 2.63425
rhand -20.1689 -20.1059
rfingers 7.12502
rthumb 6.17675 -49.9959
lclavicle -1.59028e-015 1.11319e-014
lhumerus -53.6848 3.77694 77.6838
lradius 41.6526
lwrist -2.34468
lhand -0.467916 8.71449
lfingers 7.12502
lthumb 25.1421 37.0789
rfemur -5.80803 0.0572768 25.2064
rtibia 19.7471
rfoot -21.4458 -13.9956
rtoes -10.7681
lfemur -39.9906 5.11599 -16.2182
ltibia 65.9
lfoot -17.2276 -5.98864
ltoes -10.6391
345
root -23.0628 17.7519 -2.32494 35.96 94.7004 22.0682
lowerback 20.338 1.42717 5.47422
upperback 6.27299 3.68838 4.11083
thorax -4.49874 1.99289 0.406852
lowerneck -3.35328 -0.408908 5.79187
upperneck 4.13952 -0.384092 -8.83776
head 1.91333 -0.275421 -3.9747
rclavicle -3.97569e-015 -3.65764e-014
rhumerus -40.6694 6.42082 -78.9754
rradius 41.2756
rwrist 1.55918
rhand -21.1833 -20.3355
rfingers 7.12502
rthumb 5.19737 -50.2518
lclavicle -3.97569e-015 -3.65764e-014
lhumerus -53.8763 3.34612 77.6682
lradius 41.3562
lwrist -2.82286
lhand 1.03036 8.2393
lfingers 7.12502
lthumb 26.5769 36.3945
rfemur -4.52038 0.0691607 25.2807
rtibia 18.245
rfoot -20.4991 -13.87
rtoes -11.7121
lfemur -40.7677 4.51835 -16.527
ltibia 63.8073
lfoot -17.7643 -5.40668
ltoes -10.5029
346
root -22.8534 17.7847 -2.3139 35.8745 94.7806 21.8312
lowerback 20.2762 1.4976 5.45682
upperback 6.20786 3.74845 3.89258
thorax -4.52071 2.01657 0.170645
lowerneck -3.43955 -0.406584 5.79668
upperneck 4.12085 -0.400018 -8.61814
head 1.92035 -0.282012 -3.89852
rclavicle -3.10104e-014 -3.02153e-014
rhumerus -40.682 6.22478 -79.1236
rradius 42.1217
rwrist 0.361793
rhand -21.7606 -20.4078
rfingers 7.12502
rthumb 4.63996 -50.337
lclavicle -3.10104e-014 -3.02153e-014
lhumerus -54.0529 2.88665 77.6582
lradius 41.1138
lwrist -3.38996
lhand 2.43974 7.82843
lfingers 7.12502
lthumb 27.9251 35.772
rfemur -3.26444 0.121377 25.3628
rtibia 16.7495
rfoot -19.4706 -13.7227
rtoes -12.6642
lfemur -41.4568 3.92321 -16.7923
ltibia 61.5123
lfoot -18.2272 -4.85854
ltoes -10.4788
347
root -22.6406 17.817 -2.3037 36.2218 94.8279 21.9994
lowerback 20.166 1.57195 5.42135
upperback 6.1453 3.80399 3.65813
thorax -4.51442 2.03845 -0.0692294
lowerneck -3.528 -0.40014 5.77491
upperneck 4.09765 -0.411564 -8.35815
head 1.92626 -0.286047 -3.80289
rclavicle -3.33958e-014 -2.70347e-014
rhumerus -40.7075 6.08186 -79.2963
rradius 42.9944
rwrist -0.9108
rhand -21.9119 -20.2987
rfingers 7.12502
rthumb 4.49381 -50.2311
lclavicle -3.33958e-014 -2.70347e-014
lhumerus -54.2188 2.41072 77.6529
lradius 40.9279
lwrist -4.0056
lhand 3.71142 7.49492
lfingers 7.12502
lthumb 29.1402 35.2345
rfemur -2.01166 0.211415 25.4452
rtibia 15.1933
rfoot -18.3108 -13.5434
rtoes -13.6948
lfemur -42.0475 3.34742 -17.0111
ltibia 59.0325
lfoot -18.6409 -4.3812
ltoes -10.4289
348
root -22.4242 17.8478 -2.29448 37.0557 94.8388 22.6398
lowerback 20.018 1.6486 5.36763
upperback 6.08787 3.85446 3.40905
thorax -4.4827 2.05847 -0.310987
lowerneck -3.61329 -0.387514 5.7437
upperneck 4.06799 -0.416176 -8.06789
head 1.92978 -0.286026 -3.69479
rclavicle 2.54444e-014 1.27222e-014
rhumerus -40.7405 5.98832 -79.494
rradius 43.858
rwrist -2.16991
rhand -21.696 -20.0195
rfingers 7.12502
rthumb 4.70236 -49.9473
lclavicle 2.54444e-014 1.27222e-014
lhumerus -54.3782 1.92545 77.6543
lradius 40.8014
lwrist -4.61157
lhand 4.80748 7.2417
lfingers 7.12502
lthumb 30.1863 34.7951
rfemur -0.781545 0.326256 25.5294
rtibia 13.6542
rfoot -17.0697 -13.3213
rtoes -14.7852
lfemur -42.5299 2.80172 -17.1726
ltibia 56.4214
lfoot -19.0305 -3.99769
ltoes -10.3687
349
root -22.2043 17.8765 -2.2862 38.3709 94.8047 23.7544
lowerback 19.8432 1.72752 5.28992
upperback 6.03324 3.89969 3.14045
thorax -4.43391 2.07632 -0.556935
lowerneck -3.685 -0.367185 5.72275
upperneck 4.03049 -0.41221 -7.75295
head 1.92876 -0.280732 -3.57998
rclavicle 2.14687e-014 2.22639e-014
rhumerus -40.7805 5.95087 -79.7236
rradius 44.6877
rwrist -3.36147
rhand -21.1747 -19.5866
rfingers 7.12502
rthumb 5.20564 -49.5027
lclavicle 2.14687e-014 2.22639e-014
lhumerus -54.5359 1.43348 77.6555
lradius 40.7353
lwrist -5.12912
lhand 5.69116 7.10299
lfingers 7.12502
lthumb 31.029 34.4989
rfemur 0.426983 0.450416 25.6045
rtibia 12.1401
rfoot -15.7582 -13.0397
rtoes -15.8989
lfemur -42.9017 2.30585 -17.2886
ltibia 53.725
lfoot -19.4109 -3.70997
ltoes -10.4013
350
root -21.9813 17.9023 -2.27876 40.2094 94.7274 25.3906
lowerback 19.6432 1.81349 5.1766
upperback 5.98364 3.94501 2.85985
thorax -4.36773 2.09481 -0.793622
lowerneck -3.74267 -0.34028 5.72311
upperneck 3.98318 -0.401221 -7.42296
head 1.92244 -0.270944 -3.46407
rclavicle 4.29375e-014 7.95139e-015
rhumerus -40.8236 5.96969 -79.9766
rradius 45.4636
rwrist -4.44773
rhand -20.4177 -19.032
rfingers 7.12502
rthumb 5.93653 -48.9288
lclavicle 4.29375e-014 7.95139e-015
lhumerus -54.6843 0.937107 77.6655
lradius 40.7272
lwrist -5.48517
lhand 6.37141 7.03662
lfingers 7.12502
lthumb 31.6772 34.3068
rfemur 1.6068 0.564878 25.6672
rtibia 10.6721
rfoot -14.4021 -12.6793
rtoes -16.9648
lfemur -43.1644 1.8625 -17.3562
ltibia 50.9969
lfoot -19.7785 -3.51883
ltoes -10.5369
351
root -21.7555 17.9249 -2.27199 42.7166 94.6147 27.709
lowerback 19.443 1.90224 5.03431
upperback 5.93488 3.98908 2.57031
thorax -4.30142 2.11287 -1.02243
lowerneck -3.77696 -0.306755 5.73973
upperneck 3.9303 -0.382377 -7.07079
head 1.91049 -0.256049 -3.34355
rclavicle 9.54166e-015 -8.74653e-015
rhumerus -40.8759 6.05298 -80.2588
rradius 46.1679
rwrist -5.39727
rhand -19.5012 -18.3735
rfingers 7.12502
rthumb 6.82139 -48.2436
lclavicle 9.54166e-015 -8.74653e-015
lhumerus -54.8281 0.443864 77.6782
lradius 40.7735
lwrist -5.62508
lhand 6.86563 7.04566
lfingers 7.12502
lthumb 32.1478 34.2219
rfemur 2.74331 0.332956 25.7076
rtibia 9.30545
rfoot -12.9991 -11.9165
rtoes -18.0363
lfemur -43.3123 1.47165 -17.3632
ltibia 48.2958
lfoot -20.1379 -3.40435
ltoes -10.724
352
root -21.5269 17.9442 -2.2655 45.9179 94.4825 30.7517
lowerback 19.2511 1.99371 4.85661
upperback 5.89401 4.03264 2.28147
thorax -4.23328 2.13133 -1.22995
lowerneck -3.78124 -0.269423 5.78465
upperneck 3.85523 -0.35959 -6.70999
head 1.88608 -0.238019 -3.22525
rclavicle 3.97569e-015 -3.57812e-014
rhumerus -40.9296 6.2 -80.5613
rradius 46.8019
rwrist -6.22529
rhand -18.4745 -17.6838
rfingers 7.12502
rthumb 7.81235 -47.5195
lclavicle 3.97569e-015 -3.57812e-014
lhumerus -54.9577 -0.0387202 77.6949
lradius 40.8677
lwrist -5.54584
lhand 7.19421 7.13492
lfingers 7.12502
lthumb 32.4605 34.2474
rfemur 3.80472 0.153221 25.7365
rtibia 8.14322
rfoot -11.6246 -11.1533
rtoes -18.9979
lfemur -43.3366 1.12775 -17.3067
ltibia 45.6792
lfoot -20.4421 -3.35038
ltoes -10.9252
353
root -21.2961 17.9597 -2.25923 49.9825 94.3434 34.6947
lowerback 19.0832 2.08791 4.6489
upperback 5.85573 4.07827 1.99731
thorax -4.17694 2.15093 -1.41661
lowerneck -3.76967 -0.229051 5.81333
upperneck 3.7848 -0.332047 -6.30672
head 1.86023 -0.216713 -3.08958
rclavicle -1.90833e-014 -2.22639e-014
rhumerus -40.9915 6.41057 -80.8795
rradius 47.377
rwrist -6.97025
rhand -17.3748 -17.0205
rfingers 7.12502
rthumb 8.87372 -46.8139
lclavicle -1.90833e-014 -2.22639e-014
lhumerus -55.0762 -0.509852 77.7104
lradius 41.0033
lwrist -5.27386
lhand 7.38428 7.27713
lfingers 7.12502
lthumb 32.6414 34.3523
rfemur 4.71889 0.0267674 25.765
rtibia 7.33946
rfoot -10.3545 -10.3969
rtoes -19.7723
lfemur -43.2426 0.833197 -17.1853
ltibia 43.2025
lfoot -20.659 -3.31762
ltoes -11.1499
